<mxfile host="app.diagrams.net" agent="Mozilla/5.0 (Windows NT 10.0; Win64; x64) AppleWebKit/537.36 (KHTML, like Gecko) Chrome/130.0.0.0 Safari/537.36" version="24.8.0">
  <diagram name="Page-1" id="0mqWqaCHe8iozgOtmOhj">
    <mxGraphModel dx="1290" dy="530" grid="1" gridSize="10" guides="1" tooltips="1" connect="1" arrows="1" fold="1" page="1" pageScale="1" pageWidth="1654" pageHeight="1169" math="0" shadow="0">
      <root>
        <mxCell id="0" />
        <mxCell id="1" parent="0" />
        <mxCell id="l_DIIYkfBbgbRVjLHEOZ-7" value="" style="swimlane;startSize=0;" parent="1" vertex="1">
          <mxGeometry x="130" y="110" width="720" height="930" as="geometry" />
        </mxCell>
        <mxCell id="l_DIIYkfBbgbRVjLHEOZ-11" value="Login" style="ellipse;whiteSpace=wrap;html=1;" parent="l_DIIYkfBbgbRVjLHEOZ-7" vertex="1">
          <mxGeometry x="70" y="260" width="110" height="70" as="geometry" />
        </mxCell>
        <mxCell id="l_DIIYkfBbgbRVjLHEOZ-10" value="Registrieren" style="ellipse;whiteSpace=wrap;html=1;" parent="l_DIIYkfBbgbRVjLHEOZ-7" vertex="1">
          <mxGeometry x="70" y="10" width="110" height="70" as="geometry" />
        </mxCell>
        <mxCell id="l_DIIYkfBbgbRVjLHEOZ-16" value="E-Mail / Passwort&lt;br&gt;vergessen" style="ellipse;whiteSpace=wrap;html=1;" parent="l_DIIYkfBbgbRVjLHEOZ-7" vertex="1">
          <mxGeometry x="260" y="210" width="110" height="70" as="geometry" />
        </mxCell>
        <mxCell id="l_DIIYkfBbgbRVjLHEOZ-17" value="" style="endArrow=classic;dashed=1;html=1;rounded=0;exitX=0.036;exitY=0.697;exitDx=0;exitDy=0;exitPerimeter=0;entryX=1;entryY=0.5;entryDx=0;entryDy=0;" parent="l_DIIYkfBbgbRVjLHEOZ-7" source="l_DIIYkfBbgbRVjLHEOZ-16" target="l_DIIYkfBbgbRVjLHEOZ-11" edge="1">
          <mxGeometry relative="1" as="geometry">
            <mxPoint x="80" y="-30" as="sourcePoint" />
            <mxPoint x="160" y="-90" as="targetPoint" />
          </mxGeometry>
        </mxCell>
        <mxCell id="l_DIIYkfBbgbRVjLHEOZ-18" value="extend" style="edgeLabel;resizable=0;html=1;;align=center;verticalAlign=middle;" parent="l_DIIYkfBbgbRVjLHEOZ-17" connectable="0" vertex="1">
          <mxGeometry relative="1" as="geometry" />
        </mxCell>
        <mxCell id="l_DIIYkfBbgbRVjLHEOZ-23" value="E-Mail setzen" style="ellipse;whiteSpace=wrap;html=1;" parent="l_DIIYkfBbgbRVjLHEOZ-7" vertex="1">
          <mxGeometry x="255" y="5" width="120" height="80" as="geometry" />
        </mxCell>
        <mxCell id="8asLonfYsScCi5IZSfuL-2" value="" style="endArrow=classic;dashed=1;html=1;rounded=0;exitX=1;exitY=0.5;exitDx=0;exitDy=0;entryX=0;entryY=0.5;entryDx=0;entryDy=0;" parent="l_DIIYkfBbgbRVjLHEOZ-7" source="l_DIIYkfBbgbRVjLHEOZ-10" target="l_DIIYkfBbgbRVjLHEOZ-23" edge="1">
          <mxGeometry relative="1" as="geometry">
            <mxPoint x="175" y="100" as="sourcePoint" />
            <mxPoint x="255" y="40" as="targetPoint" />
          </mxGeometry>
        </mxCell>
        <mxCell id="8asLonfYsScCi5IZSfuL-3" value="Include" style="edgeLabel;resizable=0;html=1;;align=center;verticalAlign=middle;" parent="8asLonfYsScCi5IZSfuL-2" connectable="0" vertex="1">
          <mxGeometry relative="1" as="geometry" />
        </mxCell>
        <mxCell id="8asLonfYsScCi5IZSfuL-9" value="Accountdaten&lt;br&gt;ändern" style="ellipse;whiteSpace=wrap;html=1;" parent="l_DIIYkfBbgbRVjLHEOZ-7" vertex="1">
          <mxGeometry x="70" y="160" width="110" height="70" as="geometry" />
        </mxCell>
        <mxCell id="8asLonfYsScCi5IZSfuL-12" value="" style="endArrow=classic;dashed=1;html=1;rounded=0;exitX=0.5;exitY=1;exitDx=0;exitDy=0;entryX=0.5;entryY=0;entryDx=0;entryDy=0;" parent="l_DIIYkfBbgbRVjLHEOZ-7" source="l_DIIYkfBbgbRVjLHEOZ-10" target="8asLonfYsScCi5IZSfuL-9" edge="1">
          <mxGeometry relative="1" as="geometry">
            <mxPoint x="87" y="100" as="sourcePoint" />
            <mxPoint x="163" y="102" as="targetPoint" />
          </mxGeometry>
        </mxCell>
        <mxCell id="8asLonfYsScCi5IZSfuL-13" value="Include" style="edgeLabel;resizable=0;html=1;;align=center;verticalAlign=middle;" parent="8asLonfYsScCi5IZSfuL-12" connectable="0" vertex="1">
          <mxGeometry relative="1" as="geometry" />
        </mxCell>
        <mxCell id="8asLonfYsScCi5IZSfuL-14" value="" style="endArrow=classic;dashed=1;html=1;rounded=0;exitX=-0.007;exitY=0.371;exitDx=0;exitDy=0;exitPerimeter=0;entryX=1;entryY=0.606;entryDx=0;entryDy=0;entryPerimeter=0;" parent="l_DIIYkfBbgbRVjLHEOZ-7" source="l_DIIYkfBbgbRVjLHEOZ-16" target="8asLonfYsScCi5IZSfuL-9" edge="1">
          <mxGeometry relative="1" as="geometry">
            <mxPoint x="230" y="170" as="sourcePoint" />
            <mxPoint x="160" y="227" as="targetPoint" />
          </mxGeometry>
        </mxCell>
        <mxCell id="8asLonfYsScCi5IZSfuL-15" value="include" style="edgeLabel;resizable=0;html=1;;align=center;verticalAlign=middle;" parent="8asLonfYsScCi5IZSfuL-14" connectable="0" vertex="1">
          <mxGeometry relative="1" as="geometry" />
        </mxCell>
        <mxCell id="8asLonfYsScCi5IZSfuL-18" value="Prüfe E-Mail&amp;nbsp;" style="ellipse;whiteSpace=wrap;html=1;" parent="l_DIIYkfBbgbRVjLHEOZ-7" vertex="1">
          <mxGeometry x="450" y="5" width="120" height="80" as="geometry" />
        </mxCell>
        <mxCell id="8asLonfYsScCi5IZSfuL-25" value="" style="endArrow=classic;dashed=1;html=1;rounded=0;entryX=0;entryY=0.5;entryDx=0;entryDy=0;" parent="l_DIIYkfBbgbRVjLHEOZ-7" edge="1">
          <mxGeometry relative="1" as="geometry">
            <mxPoint x="375" y="45" as="sourcePoint" />
            <mxPoint x="450" y="45" as="targetPoint" />
          </mxGeometry>
        </mxCell>
        <mxCell id="8asLonfYsScCi5IZSfuL-26" value="Include" style="edgeLabel;resizable=0;html=1;;align=center;verticalAlign=middle;" parent="8asLonfYsScCi5IZSfuL-25" connectable="0" vertex="1">
          <mxGeometry relative="1" as="geometry" />
        </mxCell>
        <mxCell id="8asLonfYsScCi5IZSfuL-31" value="Passwort setzen" style="ellipse;whiteSpace=wrap;html=1;" parent="l_DIIYkfBbgbRVjLHEOZ-7" vertex="1">
          <mxGeometry x="255" y="100" width="125" height="80" as="geometry" />
        </mxCell>
        <mxCell id="8asLonfYsScCi5IZSfuL-32" value="" style="endArrow=classic;dashed=1;html=1;rounded=0;exitX=0.964;exitY=0.771;exitDx=0;exitDy=0;exitPerimeter=0;entryX=0;entryY=0.5;entryDx=0;entryDy=0;" parent="l_DIIYkfBbgbRVjLHEOZ-7" source="l_DIIYkfBbgbRVjLHEOZ-10" target="8asLonfYsScCi5IZSfuL-31" edge="1">
          <mxGeometry relative="1" as="geometry">
            <mxPoint x="160" y="130" as="sourcePoint" />
            <mxPoint x="240" y="70" as="targetPoint" />
          </mxGeometry>
        </mxCell>
        <mxCell id="8asLonfYsScCi5IZSfuL-33" value="Include" style="edgeLabel;resizable=0;html=1;;align=center;verticalAlign=middle;" parent="8asLonfYsScCi5IZSfuL-32" connectable="0" vertex="1">
          <mxGeometry relative="1" as="geometry" />
        </mxCell>
        <mxCell id="8asLonfYsScCi5IZSfuL-36" value="Workout erstellen" style="ellipse;whiteSpace=wrap;html=1;" parent="l_DIIYkfBbgbRVjLHEOZ-7" vertex="1">
          <mxGeometry x="70" y="350" width="110" height="70" as="geometry" />
        </mxCell>
        <mxCell id="8asLonfYsScCi5IZSfuL-37" value="Split wählen" style="ellipse;whiteSpace=wrap;html=1;" parent="l_DIIYkfBbgbRVjLHEOZ-7" vertex="1">
          <mxGeometry x="260" y="400" width="110" height="70" as="geometry" />
        </mxCell>
        <mxCell id="8asLonfYsScCi5IZSfuL-38" value="Übung Auswählen" style="ellipse;whiteSpace=wrap;html=1;" parent="l_DIIYkfBbgbRVjLHEOZ-7" vertex="1">
          <mxGeometry x="425" y="310" width="110" height="70" as="geometry" />
        </mxCell>
        <mxCell id="8asLonfYsScCi5IZSfuL-39" value="Gewicht" style="ellipse;whiteSpace=wrap;html=1;" parent="l_DIIYkfBbgbRVjLHEOZ-7" vertex="1">
          <mxGeometry x="425" y="420" width="110" height="70" as="geometry" />
        </mxCell>
        <mxCell id="l_DIIYkfBbgbRVjLHEOZ-3" value="" style="endArrow=classic;dashed=1;html=1;rounded=0;exitX=1;exitY=0.5;exitDx=0;exitDy=0;entryX=0;entryY=0.5;entryDx=0;entryDy=0;" parent="l_DIIYkfBbgbRVjLHEOZ-7" source="8asLonfYsScCi5IZSfuL-36" target="8asLonfYsScCi5IZSfuL-37" edge="1">
          <mxGeometry relative="1" as="geometry">
            <mxPoint x="220" y="490" as="sourcePoint" />
            <mxPoint x="300" y="430" as="targetPoint" />
          </mxGeometry>
        </mxCell>
        <mxCell id="l_DIIYkfBbgbRVjLHEOZ-4" value="Include" style="edgeLabel;resizable=0;html=1;;align=center;verticalAlign=middle;" parent="l_DIIYkfBbgbRVjLHEOZ-3" connectable="0" vertex="1">
          <mxGeometry relative="1" as="geometry" />
        </mxCell>
        <mxCell id="8asLonfYsScCi5IZSfuL-46" value="" style="endArrow=classic;dashed=1;html=1;rounded=0;exitX=0.962;exitY=0.303;exitDx=0;exitDy=0;entryX=0;entryY=0.5;entryDx=0;entryDy=0;exitPerimeter=0;" parent="l_DIIYkfBbgbRVjLHEOZ-7" source="8asLonfYsScCi5IZSfuL-37" target="8asLonfYsScCi5IZSfuL-38" edge="1">
          <mxGeometry relative="1" as="geometry">
            <mxPoint x="355" y="434.5" as="sourcePoint" />
            <mxPoint x="415" y="434.5" as="targetPoint" />
          </mxGeometry>
        </mxCell>
        <mxCell id="8asLonfYsScCi5IZSfuL-47" value="Include" style="edgeLabel;resizable=0;html=1;;align=center;verticalAlign=middle;" parent="8asLonfYsScCi5IZSfuL-46" connectable="0" vertex="1">
          <mxGeometry relative="1" as="geometry" />
        </mxCell>
        <mxCell id="8asLonfYsScCi5IZSfuL-51" value="" style="endArrow=classic;dashed=1;html=1;rounded=0;exitX=0.5;exitY=0;exitDx=0;exitDy=0;entryX=0.5;entryY=1;entryDx=0;entryDy=0;" parent="l_DIIYkfBbgbRVjLHEOZ-7" source="8asLonfYsScCi5IZSfuL-39" target="8asLonfYsScCi5IZSfuL-38" edge="1">
          <mxGeometry relative="1" as="geometry">
            <mxPoint x="589" y="380" as="sourcePoint" />
            <mxPoint x="525" y="416" as="targetPoint" />
          </mxGeometry>
        </mxCell>
        <mxCell id="8asLonfYsScCi5IZSfuL-52" value="extend" style="edgeLabel;resizable=0;html=1;;align=center;verticalAlign=middle;" parent="8asLonfYsScCi5IZSfuL-51" connectable="0" vertex="1">
          <mxGeometry relative="1" as="geometry" />
        </mxCell>
        <mxCell id="8asLonfYsScCi5IZSfuL-53" value="Anzahl Sätze" style="ellipse;whiteSpace=wrap;html=1;" parent="l_DIIYkfBbgbRVjLHEOZ-7" vertex="1">
          <mxGeometry x="425" y="530" width="110" height="70" as="geometry" />
        </mxCell>
        <mxCell id="8asLonfYsScCi5IZSfuL-54" value="" style="endArrow=classic;dashed=1;html=1;rounded=0;exitX=0.5;exitY=0;exitDx=0;exitDy=0;entryX=0.5;entryY=1;entryDx=0;entryDy=0;" parent="l_DIIYkfBbgbRVjLHEOZ-7" edge="1">
          <mxGeometry relative="1" as="geometry">
            <mxPoint x="479.5" y="530" as="sourcePoint" />
            <mxPoint x="479.5" y="490" as="targetPoint" />
          </mxGeometry>
        </mxCell>
        <mxCell id="8asLonfYsScCi5IZSfuL-55" value="extend" style="edgeLabel;resizable=0;html=1;;align=center;verticalAlign=middle;" parent="8asLonfYsScCi5IZSfuL-54" connectable="0" vertex="1">
          <mxGeometry relative="1" as="geometry" />
        </mxCell>
        <mxCell id="dk7PYlVapWbFVflTovs5-7" value="Anzahl Wiederholungen" style="ellipse;whiteSpace=wrap;html=1;" parent="l_DIIYkfBbgbRVjLHEOZ-7" vertex="1">
          <mxGeometry x="425" y="650" width="110" height="70" as="geometry" />
        </mxCell>
        <mxCell id="dk7PYlVapWbFVflTovs5-8" value="" style="endArrow=classic;dashed=1;html=1;rounded=0;exitX=0.5;exitY=0;exitDx=0;exitDy=0;entryX=0.5;entryY=1;entryDx=0;entryDy=0;" parent="l_DIIYkfBbgbRVjLHEOZ-7" source="dk7PYlVapWbFVflTovs5-7" edge="1">
          <mxGeometry relative="1" as="geometry">
            <mxPoint x="479.5" y="640" as="sourcePoint" />
            <mxPoint x="479.5" y="600" as="targetPoint" />
          </mxGeometry>
        </mxCell>
        <mxCell id="dk7PYlVapWbFVflTovs5-9" value="extend" style="edgeLabel;resizable=0;html=1;;align=center;verticalAlign=middle;" parent="dk7PYlVapWbFVflTovs5-8" connectable="0" vertex="1">
          <mxGeometry relative="1" as="geometry" />
        </mxCell>
        <mxCell id="dk7PYlVapWbFVflTovs5-12" value="Workout wählen" style="ellipse;whiteSpace=wrap;html=1;" parent="l_DIIYkfBbgbRVjLHEOZ-7" vertex="1">
          <mxGeometry x="70" y="470" width="110" height="70" as="geometry" />
        </mxCell>
        <mxCell id="dk7PYlVapWbFVflTovs5-13" value="" style="endArrow=classic;dashed=1;html=1;rounded=0;exitX=0.5;exitY=0;exitDx=0;exitDy=0;entryX=0.5;entryY=1;entryDx=0;entryDy=0;" parent="l_DIIYkfBbgbRVjLHEOZ-7" source="dk7PYlVapWbFVflTovs5-12" target="8asLonfYsScCi5IZSfuL-36" edge="1">
          <mxGeometry relative="1" as="geometry">
            <mxPoint x="130" y="469" as="sourcePoint" />
            <mxPoint x="205" y="469" as="targetPoint" />
          </mxGeometry>
        </mxCell>
        <mxCell id="dk7PYlVapWbFVflTovs5-14" value="Include" style="edgeLabel;resizable=0;html=1;;align=center;verticalAlign=middle;" parent="dk7PYlVapWbFVflTovs5-13" connectable="0" vertex="1">
          <mxGeometry relative="1" as="geometry" />
        </mxCell>
        <mxCell id="dk7PYlVapWbFVflTovs5-15" value="Workout starten" style="ellipse;whiteSpace=wrap;html=1;" parent="l_DIIYkfBbgbRVjLHEOZ-7" vertex="1">
          <mxGeometry x="255" y="590" width="110" height="70" as="geometry" />
        </mxCell>
        <mxCell id="dk7PYlVapWbFVflTovs5-16" value="Einstellungen" style="ellipse;whiteSpace=wrap;html=1;" parent="l_DIIYkfBbgbRVjLHEOZ-7" vertex="1">
          <mxGeometry x="255" y="490" width="110" height="70" as="geometry" />
        </mxCell>
        <mxCell id="dk7PYlVapWbFVflTovs5-17" value="" style="endArrow=classic;dashed=1;html=1;rounded=0;exitX=0.031;exitY=0.234;exitDx=0;exitDy=0;entryX=0.927;entryY=0.749;entryDx=0;entryDy=0;entryPerimeter=0;exitPerimeter=0;" parent="l_DIIYkfBbgbRVjLHEOZ-7" source="dk7PYlVapWbFVflTovs5-15" target="dk7PYlVapWbFVflTovs5-12" edge="1">
          <mxGeometry relative="1" as="geometry">
            <mxPoint x="255.5" y="560" as="sourcePoint" />
            <mxPoint x="255" y="510" as="targetPoint" />
          </mxGeometry>
        </mxCell>
        <mxCell id="dk7PYlVapWbFVflTovs5-18" value="extend" style="edgeLabel;resizable=0;html=1;;align=center;verticalAlign=middle;" parent="dk7PYlVapWbFVflTovs5-17" connectable="0" vertex="1">
          <mxGeometry relative="1" as="geometry" />
        </mxCell>
        <mxCell id="dk7PYlVapWbFVflTovs5-19" value="" style="endArrow=classic;dashed=1;html=1;rounded=0;exitX=0;exitY=0.5;exitDx=0;exitDy=0;entryX=0.927;entryY=0.749;entryDx=0;entryDy=0;entryPerimeter=0;" parent="l_DIIYkfBbgbRVjLHEOZ-7" source="dk7PYlVapWbFVflTovs5-16" edge="1">
          <mxGeometry relative="1" as="geometry">
            <mxPoint x="263.5" y="534" as="sourcePoint" />
            <mxPoint x="180" y="496" as="targetPoint" />
          </mxGeometry>
        </mxCell>
        <mxCell id="dk7PYlVapWbFVflTovs5-20" value="extend" style="edgeLabel;resizable=0;html=1;;align=center;verticalAlign=middle;" parent="dk7PYlVapWbFVflTovs5-19" connectable="0" vertex="1">
          <mxGeometry relative="1" as="geometry" />
        </mxCell>
        <mxCell id="dk7PYlVapWbFVflTovs5-21" value="" style="endArrow=classic;dashed=1;html=1;rounded=0;exitX=0.218;exitY=0.949;exitDx=0;exitDy=0;entryX=0.92;entryY=0.16;entryDx=0;entryDy=0;entryPerimeter=0;exitPerimeter=0;" parent="l_DIIYkfBbgbRVjLHEOZ-7" source="8asLonfYsScCi5IZSfuL-38" target="dk7PYlVapWbFVflTovs5-16" edge="1">
          <mxGeometry relative="1" as="geometry">
            <mxPoint x="425" y="534" as="sourcePoint" />
            <mxPoint x="341.5" y="496" as="targetPoint" />
          </mxGeometry>
        </mxCell>
        <mxCell id="dk7PYlVapWbFVflTovs5-22" value="extend" style="edgeLabel;resizable=0;html=1;;align=center;verticalAlign=middle;" parent="dk7PYlVapWbFVflTovs5-21" connectable="0" vertex="1">
          <mxGeometry relative="1" as="geometry" />
        </mxCell>
        <mxCell id="dk7PYlVapWbFVflTovs5-26" value="Workout beenden" style="ellipse;whiteSpace=wrap;html=1;" parent="l_DIIYkfBbgbRVjLHEOZ-7" vertex="1">
          <mxGeometry x="255" y="710" width="110" height="70" as="geometry" />
        </mxCell>
        <mxCell id="dk7PYlVapWbFVflTovs5-27" value="" style="endArrow=classic;dashed=1;html=1;rounded=0;exitX=0.5;exitY=0;exitDx=0;exitDy=0;entryX=0.5;entryY=1;entryDx=0;entryDy=0;" parent="l_DIIYkfBbgbRVjLHEOZ-7" edge="1">
          <mxGeometry relative="1" as="geometry">
            <mxPoint x="310" y="710" as="sourcePoint" />
            <mxPoint x="309.5" y="660" as="targetPoint" />
          </mxGeometry>
        </mxCell>
        <mxCell id="dk7PYlVapWbFVflTovs5-28" value="extend" style="edgeLabel;resizable=0;html=1;;align=center;verticalAlign=middle;" parent="dk7PYlVapWbFVflTovs5-27" connectable="0" vertex="1">
          <mxGeometry relative="1" as="geometry" />
        </mxCell>
        <mxCell id="dk7PYlVapWbFVflTovs5-29" value="Login-Token erzeugen" style="ellipse;whiteSpace=wrap;html=1;" parent="l_DIIYkfBbgbRVjLHEOZ-7" vertex="1">
          <mxGeometry x="450" y="100" width="120" height="80" as="geometry" />
        </mxCell>
        <mxCell id="dk7PYlVapWbFVflTovs5-30" value="" style="endArrow=classic;dashed=1;html=1;rounded=0;exitX=1;exitY=1;exitDx=0;exitDy=0;" parent="l_DIIYkfBbgbRVjLHEOZ-7" source="l_DIIYkfBbgbRVjLHEOZ-23" target="dk7PYlVapWbFVflTovs5-29" edge="1">
          <mxGeometry relative="1" as="geometry">
            <mxPoint x="365" y="70" as="sourcePoint" />
            <mxPoint x="440" y="70" as="targetPoint" />
          </mxGeometry>
        </mxCell>
        <mxCell id="dk7PYlVapWbFVflTovs5-31" value="Include" style="edgeLabel;resizable=0;html=1;;align=center;verticalAlign=middle;" parent="dk7PYlVapWbFVflTovs5-30" connectable="0" vertex="1">
          <mxGeometry relative="1" as="geometry" />
        </mxCell>
        <mxCell id="dk7PYlVapWbFVflTovs5-32" value="" style="endArrow=classic;dashed=1;html=1;rounded=0;entryX=0;entryY=0.5;entryDx=0;entryDy=0;exitX=1;exitY=0.5;exitDx=0;exitDy=0;" parent="l_DIIYkfBbgbRVjLHEOZ-7" source="8asLonfYsScCi5IZSfuL-31" target="dk7PYlVapWbFVflTovs5-29" edge="1">
          <mxGeometry relative="1" as="geometry">
            <mxPoint x="375" y="150" as="sourcePoint" />
            <mxPoint x="450" y="129.5" as="targetPoint" />
          </mxGeometry>
        </mxCell>
        <mxCell id="dk7PYlVapWbFVflTovs5-33" value="Include" style="edgeLabel;resizable=0;html=1;;align=center;verticalAlign=middle;" parent="dk7PYlVapWbFVflTovs5-32" connectable="0" vertex="1">
          <mxGeometry relative="1" as="geometry" />
        </mxCell>
        <mxCell id="l_DIIYkfBbgbRVjLHEOZ-8" value="User" style="shape=umlActor;verticalLabelPosition=bottom;verticalAlign=top;html=1;outlineConnect=0;" parent="1" vertex="1">
          <mxGeometry x="30" y="310" width="40" height="90" as="geometry" />
        </mxCell>
        <mxCell id="l_DIIYkfBbgbRVjLHEOZ-9" value="" style="endArrow=classic;html=1;rounded=0;entryX=0;entryY=0.5;entryDx=0;entryDy=0;" parent="1" source="l_DIIYkfBbgbRVjLHEOZ-8" target="l_DIIYkfBbgbRVjLHEOZ-10" edge="1">
          <mxGeometry width="50" height="50" relative="1" as="geometry">
            <mxPoint x="90" y="240" as="sourcePoint" />
            <mxPoint x="190" y="190" as="targetPoint" />
          </mxGeometry>
        </mxCell>
        <mxCell id="l_DIIYkfBbgbRVjLHEOZ-24" value="" style="endArrow=classic;html=1;rounded=0;entryX=0;entryY=0.5;entryDx=0;entryDy=0;" parent="1" source="l_DIIYkfBbgbRVjLHEOZ-8" target="8asLonfYsScCi5IZSfuL-9" edge="1">
          <mxGeometry width="50" height="50" relative="1" as="geometry">
            <mxPoint x="90" y="240" as="sourcePoint" />
            <mxPoint x="198" y="305" as="targetPoint" />
          </mxGeometry>
        </mxCell>
        <mxCell id="l_DIIYkfBbgbRVjLHEOZ-22" value="" style="endArrow=classic;html=1;rounded=0;entryX=0;entryY=0.5;entryDx=0;entryDy=0;" parent="1" source="l_DIIYkfBbgbRVjLHEOZ-8" target="l_DIIYkfBbgbRVjLHEOZ-11" edge="1">
          <mxGeometry width="50" height="50" relative="1" as="geometry">
            <mxPoint x="90" y="240" as="sourcePoint" />
            <mxPoint x="217" y="181" as="targetPoint" />
          </mxGeometry>
        </mxCell>
        <mxCell id="8asLonfYsScCi5IZSfuL-16" value="Datenbank" style="shape=cylinder3;whiteSpace=wrap;html=1;boundedLbl=1;backgroundOutline=1;size=15;" parent="1" vertex="1">
          <mxGeometry x="920" y="240" width="60" height="80" as="geometry" />
        </mxCell>
        <mxCell id="8asLonfYsScCi5IZSfuL-29" value="" style="endArrow=classic;dashed=1;html=1;rounded=0;exitX=1;exitY=0.5;exitDx=0;exitDy=0;entryX=0;entryY=1;entryDx=0;entryDy=-15;entryPerimeter=0;" parent="1" source="8asLonfYsScCi5IZSfuL-9" target="8asLonfYsScCi5IZSfuL-16" edge="1">
          <mxGeometry relative="1" as="geometry">
            <mxPoint x="620" y="280" as="sourcePoint" />
            <mxPoint x="700" y="220" as="targetPoint" />
            <Array as="points">
              <mxPoint x="670" y="305" />
            </Array>
          </mxGeometry>
        </mxCell>
        <mxCell id="8asLonfYsScCi5IZSfuL-30" value="Include" style="edgeLabel;resizable=0;html=1;;align=center;verticalAlign=middle;" parent="8asLonfYsScCi5IZSfuL-29" connectable="0" vertex="1">
          <mxGeometry relative="1" as="geometry" />
        </mxCell>
        <mxCell id="8asLonfYsScCi5IZSfuL-34" value="&lt;div&gt;Login-Token&lt;/div&gt;&lt;div&gt;&lt;br&gt;&lt;/div&gt;" style="shape=umlActor;verticalLabelPosition=bottom;verticalAlign=top;html=1;outlineConnect=0;" parent="1" vertex="1">
          <mxGeometry x="930" y="130" width="30" height="60" as="geometry" />
        </mxCell>
        <mxCell id="8asLonfYsScCi5IZSfuL-56" value="" style="endArrow=classic;html=1;rounded=0;entryX=0;entryY=0.5;entryDx=0;entryDy=0;" parent="1" source="l_DIIYkfBbgbRVjLHEOZ-8" target="8asLonfYsScCi5IZSfuL-36" edge="1">
          <mxGeometry width="50" height="50" relative="1" as="geometry">
            <mxPoint x="140" y="540" as="sourcePoint" />
            <mxPoint x="190" y="490" as="targetPoint" />
          </mxGeometry>
        </mxCell>
        <mxCell id="dk7PYlVapWbFVflTovs5-11" value="" style="endArrow=classic;html=1;rounded=0;entryX=0;entryY=0.5;entryDx=0;entryDy=0;" parent="1" source="l_DIIYkfBbgbRVjLHEOZ-8" target="dk7PYlVapWbFVflTovs5-12" edge="1">
          <mxGeometry width="50" height="50" relative="1" as="geometry">
            <mxPoint x="150" y="640" as="sourcePoint" />
            <mxPoint x="200" y="590" as="targetPoint" />
          </mxGeometry>
        </mxCell>
        <mxCell id="dk7PYlVapWbFVflTovs5-23" value="" style="endArrow=classic;dashed=1;html=1;rounded=0;exitX=0.964;exitY=0.257;exitDx=0;exitDy=0;entryX=0.323;entryY=1;entryDx=0;entryDy=0;exitPerimeter=0;entryPerimeter=0;" parent="1" source="8asLonfYsScCi5IZSfuL-36" target="8asLonfYsScCi5IZSfuL-16" edge="1">
          <mxGeometry relative="1" as="geometry">
            <mxPoint x="330" y="460" as="sourcePoint" />
            <mxPoint x="410" y="510" as="targetPoint" />
            <Array as="points">
              <mxPoint x="690" y="320" />
            </Array>
          </mxGeometry>
        </mxCell>
        <mxCell id="dk7PYlVapWbFVflTovs5-24" value="Include" style="edgeLabel;resizable=0;html=1;;align=center;verticalAlign=middle;" parent="dk7PYlVapWbFVflTovs5-23" connectable="0" vertex="1">
          <mxGeometry relative="1" as="geometry" />
        </mxCell>
        <mxCell id="dk7PYlVapWbFVflTovs5-34" value="" style="endArrow=classic;dashed=1;html=1;rounded=0;exitX=1;exitY=0.5;exitDx=0;exitDy=0;" parent="1" source="dk7PYlVapWbFVflTovs5-29" target="8asLonfYsScCi5IZSfuL-34" edge="1">
          <mxGeometry relative="1" as="geometry">
            <mxPoint x="720" y="250" as="sourcePoint" />
            <mxPoint x="775" y="260.5" as="targetPoint" />
          </mxGeometry>
        </mxCell>
        <mxCell id="dk7PYlVapWbFVflTovs5-35" value="Include" style="edgeLabel;resizable=0;html=1;;align=center;verticalAlign=middle;" parent="dk7PYlVapWbFVflTovs5-34" connectable="0" vertex="1">
          <mxGeometry relative="1" as="geometry" />
        </mxCell>
      </root>
    </mxGraphModel>
  </diagram>
</mxfile>